<?xml version="1.0"?>
<svg xmlns="http://www.w3.org/2000/svg" xmlns:xlink="http://www.w3.org/1999/xlink" xmlns:svgjs="http://svgjs.com/svgjs" version="1.1" width="512" height="512" x="0" y="0" viewBox="0 0 512.318 512.318" style="enable-background:new 0 0 512 512" xml:space="preserve" class=""><g><g xmlns="http://www.w3.org/2000/svg"><path d="m316.243 217.286c30.916 46.796-3.712 111.049-60.189 110.702-39.549 0-71.726-32.176-71.726-71.726-.34-56.478 63.906-91.105 110.702-60.188l43.424-43.424c-84.975-68.781-215.367-6.693-214.837 103.614-.001 73.025 59.41 132.436 132.437 132.436 110.312.516 172.396-129.863 103.613-214.838z" fill="#54aaa5" data-original="#000000" style="" class=""/><path d="m245.448 245.655 27.531-27.531c-26.929-12.406-59.027 8.369-58.651 38.138 0 23.008 18.718 41.726 41.726 41.726 29.766.373 50.548-31.721 38.138-58.651l-27.531 27.531z" fill="#54aaa5" data-original="#000000" style="" class=""/><path d="m431.713 163.15-50.279-10.056c86.86 103.77 11.209 266.22-125.381 265.605-89.567.001-162.436-72.869-162.436-162.437-.597-136.597 161.836-212.244 265.606-125.38l-10.057-50.279 41.901-41.901c-168.891-105.768-391.909 17.943-391.018 217.561-2.838 137.6 118.395 258.855 256.008 256.003 199.616.882 323.335-222.135 217.557-391.018z" fill="#54aaa5" data-original="#000000" style="" class=""/><path d="m421.853 130.583 42.681-42.681-33.433-6.686-6.687-33.434-42.682 42.682 6.687 33.433z" fill="#54aaa5" data-original="#000000" style="" class=""/></g></g></svg>
